# xmcd CD database file
# Copyright (C) 1993-1998 Ti Kan
# 
# Track frame offsets:
#     150
#     12405
#     23972
#     35057
#     47970
#     59870
#     73572
#     86790
#     99357
#     112787
#     125467
#     136405
#     148540
#     160697
# 
# Disc length: 2300 seconds
# 
# Revision: 1
# Processed by: cddbd v1.4b41PL1 Copyright (c) Steve Scherf et al.
# Submitted via: DiscPlay 4.0.4
# 
DISCID=c508fa0e
DTITLE=Lester Flatt and Earl Scruggs - The Mercury Sessions, Vol. 2
DYEAR=1900
DGENRE=
TTITLE0=My Little Girl In Tennessee
TTITLE1=Will The Roses Bloom (Where She Lies Sleeping)
TTITLE2=I'll Never Shed Another Tear
TTITLE3=Bouquet In Heaven
TTITLE4=Cabin In Caroline
TTITLE5=I'll Never Love Another
TTITLE6=God Loves His Children
TTITLE7=Pain In My Heart
TTITLE8=Baby Blue Eyes
TTITLE9=Doing My Time
TTITLE10=Preaching Praying Singing
TTITLE11=Why Don't You Tell Me So
TTITLE12=Foggy Mountain Breakdown
TTITLE13=I'm Going To Make Heaven My Home
EXTD=
EXTT0=
EXTT1=
EXTT2=
EXTT3=
EXTT4=
EXTT5=
EXTT6=
EXTT7=
EXTT8=
EXTT9=
EXTT10=
EXTT11=
EXTT12=
EXTT13=
PLAYORDER=
